<svg id="fullname" data-name="fullname-data" xmlns="http://www.w3.org/2000/svg" viewBox="0 0 590.543 77.518">
  <defs>
    <clipPath id="clip-path" transform="translate(.32 15.727)">
      <path id="N3" d="M555.48 32.53c-2.77 8.29 1.67 16.48-2.31 23.94-4.58-9.71-4.53-19.79-4.28-29.88l6.43-.86c1.47 2.09 2.45 4.49 4.23 5.83 7.1 5.31 14.45 10.3 21.71 15.4l2.11-1.09c-.55-6.45-1-12.91-1.69-19.34-.45-4.11-1.62-8.17-1.79-12.28-.06-1.4 2-2.89 3-4.33 1.32 1.21 3.64 2.31 3.79 3.66 1 9.06 1.64 18.17 2.24 27.28a15 15 0 0 1-.72 4.9c-1.71 6.12-4.95 7.71-10.24 4.17-6.46-4.32-12.43-9.39-18.6-14.15-1.23-.99-2.43-2.05-3.88-3.25z" fill="none"/>
    </clipPath>
    <clipPath id="clip-path-2" transform="translate(.32 15.727)">
      <path id="A2" class="animate-a2" d="M508.688 46.3a26.446 26.446 0 0 1-.3-6.063c1.23-8 3.622-16.083 5.272-24.023.39-1.87 1.94-4.56 3.37-4.85s3.44 1.87 5.18 3a1.54 1.54 0 0 1 .33.37c3.38 4.29 3.9 11.72 12.9 9.88l-.75 1.71-5.06 1.64c2.45 6.45 5 12.85 7.22 19.37.5 1.48-.35 3.42-.57 5.15-1.19-1.26-2.88-2.32-3.47-3.82-2.37-6-4.22-12.23-6.67-18.2-.871-1.5-2.743-1.13-4.468-1.277-6.42.4-9.492 2.657-9.962 9.177-.18 2.54 0 5.1 0 7.65zm15.592-22.52c-2.27-3.76-1.311-6.944-6.791-9.584l-3.1 12.65z" fill="none"/>
    </clipPath>
    <clipPath id="clip-path-3" transform="translate(.32 15.727)">
      <path id="W" d="M460.64 17.43L464 40.64l1.88-.12c.61-3.35 1.11-6.73 1.87-10.05 1.31-5.7 4.65-7 9.31-3.41 2.76 2.11 5.12 4.74 7.78 7 1.59 1.34 3.41 2.41 5.13 3.6l1.63-.51c0-4.67.19-9.35-.05-14-.24-4.47-1-8.9-1.32-13.37-.06-1 1.06-2.08 1.63-3.12.71.89 1.91 1.71 2.05 2.68 1 6.41 1.9 12.83 2.43 19.29.38 4.65.52 10.08-4.06 12.54-4.77 2.56-8.26-1.91-11.72-4.6-2.3-1.79-4.38-3.87-7.13-6.32-.85 4.86-1.34 8.76-2.27 12.55a13.22 13.22 0 0 1-2.79 5.75c-2 2.12-5 3.2-6.31-.55-3.46-9.83-5-19.91-2-30.23.01-.21.48-.29.58-.34z" fill="none"/>
    </clipPath>
    <clipPath id="clip-path-4" transform="translate(.32 15.727)">
      <path id="A" class="animate-a" d="M446.83 30.89l-7.3 2.35c1.71 3.79 3.43 7.33 4.89 11a28.7 28.7 0 0 1 2.23 7.57c.14 1.35-1.28 2.85-2 4.28-1-1.06-2.46-1.94-3-3.21-2.59-6.05-4.94-12.21-7.41-18.41-5 .75-8.42 2-9.15 7.59-.39 3-2.7 5.72-5 8.08 1-4.81 2.28-9.58 2.85-14.43.66-5.59.55-11.26 1-16.87.13-1.46 1-3.83 2-4a5.72 5.72 0 0 1 4.71 1.56 27.35 27.35 0 0 1 4.84 8c1.39 3.86 3.08 6 7.53 4.48 1-.36 2.37.18 3.57.31z" fill="none"/>
    </clipPath>
    <clipPath id="clip-path-5" transform="translate(.32 15.727)">
      <path id="I2" class="animate-i2" d="M402.752 20.28c.53 3.8-.232 7.61.358 11.41.64 4.44 1.49 8.86 1.88 13.31.12 1.41-.95 2.93-1.47 4.4-1-1.08-2.82-2.14-2.86-3.24-.24-8.58-.744-17.151-.744-25.731z" fill="none"/>
    </clipPath>
    <clipPath id="clip-path-6" transform="translate(.32 15.727)">
      <path id="N2" class="animate-n2" d="M363.24 29.74c0 7.4.14 13.37-.1 19.33-.06 1.37-1.4 2.69-2.15 4-1.07-1.24-2.93-2.38-3.08-3.73-.83-7.09-1.51-14.22-1.67-21.35-.1-4.41 3.69-6.13 7.25-3.43a29 29 0 0 1 5.19 6c3.74 5 7.37 10.11 11 15.17l1.77-.5v-23c0-2.15-.81-4.38-.45-6.43.25-1.43 1.86-2.63 2.87-3.93 1.23 1.1 3.57 2.23 3.53 3.29-.36 10.59-.64 21.23-2 31.73-.63 5-4.87 5.77-8.3 1.71-4-4.68-7.33-9.87-11-14.84z" fill="none"/>
    </clipPath>
    <clipPath id="clip-path-7" transform="translate(.32 15.727)">
      <path id="R" class="animate-r" d="M311.5 43.88c.28 3.15.67 6 .72 9 0 .86-.92 1.74-1.42 2.61-.57-.67-1.6-1.31-1.66-2-.78-9.08-1.68-18.17-2-27.28-.13-4 2.56-7.56 6.45-7.7 2.77-.1 6.4 1.89 8.33 4.09 5.65 6.4 5.08 12.4-1.47 20.82 4.78.75 9 1.48 13.31 2.06 2 .27 4.09-.12 5.95.44s3.36 1.91 5 2.91c-1.79.88-3.53 2.42-5.37 2.53-8.68.56-16.63-1.71-27.84-7.48zm-1-5c4.48.68 8.39 2.21 11.13-2 2.9-4.45 0-13.52-5-15.48-2.59-1-6.07.72-6.13 3.24-.08 4.67 0 9.36 0 14.27z" fill="none"/>
    </clipPath>
    <clipPath id="clip-path-8" transform="translate(.32 15.727)">
      <path id="U" d="M287.72 45a94.667 94.667 0 0 1-5.1 8.29c-2.4 3.15-5.5 4-9.13 1.71-7.82-4.87-13-23.33-8.66-31.45a7.26 7.26 0 0 1 2.42-2.5c-3.59 12 1.59 20.7 8.72 28.72h2.09c1.64-4.74 3.45-9.43 4.85-14.24.88-3 .87-6.27 1.77-9.27.53-1.76 2.05-3.23 3.13-4.82 1.32 1.31 3.32 2.39 3.83 4a206.949 206.949 0 0 1 5.44 20.13c.29 1.37-1.24 4.06-2.55 4.57s-3.54-.71-5-1.7c-.94-.58-1.21-2.17-1.81-3.44z" fill="none"/>
    </clipPath>
    <clipPath id="clip-path-9" transform="translate(.32 15.727)">
      <path id="K" d="M223.34 17.38v13.28c4.62-4.33 8.47-8 12.33-11.55s7.76-7.17 11.64-10.75l1.2 1.3L229 31.45c5.67 6 12.31 11.34 21.33 13 2.26.42 5.55.14 4.61 3.41-.45 1.56-4.1 3.59-5.71 3.16a41.88 41.88 0 0 1-12.51-5.48c-4.62-3.09-8.59-7.13-12.65-10.59.46 2.72 1.32 6.45 1.65 10.21.31 3.57 4.33 9.16-1.12 10.25-5.9 1.18-4.45-5.56-4.52-8.88-.18-8.72.51-17.46 1-26.19.06-1.06.83-2.08 1.27-3.13z" fill="none"/>
    </clipPath>
    <clipPath id="clip-path-10" transform="translate(.32 15.727)">
      <path id="N" d="M140.29 33.2l-1.81 11.26h-1.71c-3.17-4.11-1.08-9.36-2.28-13.86-1.64-6.12 6-6.53 5.75-11.6.71.52 1.15.67 1.16.87.3 3.32-.68 7.66 1 9.78a104.43 104.43 0 0 0 15.34 14.6c2.32 1.88 5 .43 5.39-2.78q1-9.13 1.49-18.32c.24-5-.22-10 .2-14.92.13-1.55 2.1-3 3.23-4.42 1 1.39 3 2.83 2.95 4.18-.52 10.9-.42 22-2.51 32.62-1.92 9.8-8.27 11.1-16.15 4.82-4.44-3.53-8.92-7-13.39-10.51z" fill="none"/>
    </clipPath>
    <clipPath id="clip-path-11" transform="translate(.32 15.727)">
      <path id="I" d="M115.71 23.25c.35 3.33.71 6.65 1 10 .61 6.43 1.32 12.85 1.68 19.29.07 1.25-1.31 2.58-2 3.87a25.86 25.86 0 0 1-3.56-2.54 3.36 3.36 0 0 1-.62-2.35c.51-9.4 1.1-18.79 1.66-28.19z" fill="none"/>
    </clipPath>
    <clipPath id="clip-path-12" transform="translate(.32 15.727)">
      <path id="I-dot" d="M119.189 10.563c-1.87 1.34-3 2.74-4 2.67s-2-1.55-3-2.41c1-1 1.83-2.58 3-2.91.86-.22 2.13 1.32 4 2.65z" fill="none"/>
    </clipPath>
    <clipPath id="clip-path-13" transform="translate(.32 15.727)">
      <path id="T" class="animate-t" d="M86.46 18.38H73.65l-.17-1.46c7.83-1.26 15.65-2.56 23.49-3.68.6-.09 1.38 1.07 2.08 1.64-.58.68-1.15 1.36-1.75 2-.09.1-.32.06-.48.11-8.47 2.64-8.54 2.64-8.44 11.48.08 7.31.46 14.62.45 21.93 0 1.32-1.22 2.63-1.88 3.94-.63-1.33-1.83-2.67-1.79-4 .29-10.54.84-21.12 1.3-31.96z" fill="none"/>
    </clipPath>
    <clipPath id="clip-path-14" transform="translate(.32 15.727)">
      <path id="S" d="M59.61 26.33c-.11-5.3-1.62-9.47-7.4-10-1.63-.16-4.06.12-4.84 1.16s-.37 3.51.45 4.83c3.09 5.11 6.75 9.88 9.79 15a61.36 61.36 0 0 1 6 12.49c1.54 4.85-2.23 8-7.17 6.69-6.5-1.79-13.11-11.74-11.92-18.35.23-1.27 1.71-2.31 2.61-3.45.52 1.21 1.51 2.42 1.49 3.62-.08 5.3 2.51 9.23 6.2 12.52 1.31 1.17 3.27 1.59 4.94 2.35l1.54-1.28c-1.93-4-3.55-8.27-5.88-12.07-3.29-5.37-7.15-10.39-10.68-15.62-2-3-2.88-6.16-.14-9.14s6.17-2.71 9.64-1.23c5.66 2.45 7.55 6.2 5.37 12.48z" fill="none"/>
    </clipPath>
    <clipPath id="clip-path-15" transform="translate(.32 15.727)">
      <path id="O" d="M30.39 27.67a45 45 0 0 1-5.63 23.52c-.4.73-.77 1.48-1.22 2.17C20 58.65 14.17 61.89 10 60.85c-5.54-1.38-10.1-7.12-10-14 .13-9.12.49-18.75 6.14-26.24 3.43-4.55 9.15-7.73 14.41-10.44 3.54-1.83 8 1.94 9 7.08.73 3.39.6 6.94.84 10.42zm-2.48.94c-.29-3.79-.13-7.68-1-11.34-1.19-5.17-4.94-6.07-9.1-2.7-.71.57-1.78.69-2.53 1.23-2.82 2.05-6.85 4.74-7.65 7.45-2.359 7.871-4.3 14.9-5.11 23.08A9.981 9.981 0 0 0 9.87 57.2c5.41 1.25 8-2.439 11-5.709a7.74 7.74 0 0 0 1.48-2.386c2.19-6.85 3.612-12.583 5.762-19.443z" fill="none"/>
    </clipPath>
  </defs>
  <g clip-path="url(#clip-path)">
    <path id="n3-path" class="animate-n3" fill="none" stroke="#fff" stroke-miterlimit="10" stroke-width="8" d="M551.336 38.417l1.936 36.259-.528-29.395 4.4 1.585 24.114 17.865 3.08-.264 2.113-4.312-3.609-36.435"/>
  </g>
  <g clip-path="url(#clip-path-2)">
    <path id="a2-path" class="animate-a2" fill="none" stroke="#fff" stroke-miterlimit="10" stroke-width="6" d="M510.149 65.083l1.056-16.897 5.016-18.834 1.584-1.144 3.169 2.816 3.432 4.313 12.919 34.146-29.728-6.864-1.497-9.329 3.169-7.921 29.218-5.896"/>
  </g>
  <g clip-path="url(#clip-path-3)">
    <path id="w-path" class="animate-w" d="M459.863 28.466s1.556 31.033 5.192 33.422 6.976-17.591 6.976-17.591l1.46-.9 15.886 11.847s5.043 1.021 5.283-3.722-2.762-32.238-2.762-32.238" fill="none" stroke="#fff" stroke-miterlimit="10" stroke-width="7"/>
  </g>
  <g clip-path="url(#clip-path-4)">
    <path id="a-path" class="animate-a" d="M422.413 67.527c1.558-13.4 3.281-26.263 6.748-33.478l18.492 39.525s-40.314 3.331-30.06-23.005l31.2-5.39" fill="none" stroke="#fff" stroke-miterlimit="10" stroke-width="6"/>
  </g>
  <g clip-path="url(#clip-path-5)">
    <path id="i2-path" class="animate-i2" fill="none" stroke="#fff" stroke-miterlimit="10" stroke-width="6" d="M400.825 33.609l2.818 34.267"/>
  </g>
  <g clip-path="url(#clip-path-6)">
    <path id="n2-path" class="animate-n2" d="M359.271 36.007l1.274 34.059.438-27.431s4.031 0 8.238 7.537 11.656 14.285 11.656 14.285 6.843 8.852 2.892-40.051" fill="none" stroke="#fff" stroke-miterlimit="10" stroke-width="6"/>
  </g>
  <g clip-path="url(#clip-path-7)">
    <path id="r-path" class="animate-r" d="M308.635 32.089l2.615 44.688-1.308-39.457s7.778-6.608 12.871 4.407-2.478 15.28-5.644 16.519 29.872 9.223 29.872 9.223" fill="none" stroke="#fff" stroke-miterlimit="10" stroke-width="8"/>
  </g>
  <g clip-path="url(#clip-path-8)">
    <path id="u-path" class="animate-u" d="M265.82 34.233c-.673 5.044-2.065 28.828 7.434 32.683s10.049-5.369 10.049-5.369l4.817-28.77 4.956 35.081" fill="none" stroke="#fff" stroke-miterlimit="10" stroke-width="10"/>
  </g>
  <g clip-path="url(#clip-path-9)">
    <path id="k-path" class="animate-k" fill="none" stroke="#fff" stroke-miterlimit="10" stroke-width="9" d="M222.122 28.962l1.622 44.921V26.291l29.473-4.904-28.416 26.81 31.249 19.01"/>
  </g>
  <g clip-path="url(#clip-path-10)">
    <path id="n-path" class="animate-n" d="M138.92 32.015l-1.127 30.18s.751-16.4 1.878-16.4 11.9 14.151 16.154 15.654 13.149 12.648 12.648-43.579" fill="none" stroke="#fff" stroke-miterlimit="10" stroke-width="7"/>
  </g>
  <g clip-path="url(#clip-path-11)">
    <path id="i-path" class="animate-i" fill="none" stroke="#fff" stroke-miterlimit="10" stroke-width="7" d="M114.937 37.761l1.411 36.02"/>
  </g>
  <g clip-path="url(#clip-path-12)">
    <path id="i-dot-path" class="animate-i-dot" fill="none" stroke="#fff" stroke-miterlimit="10" stroke-width="5" d="M112.509 23.237l6.743 5.725"/>
  </g>
  <g clip-path="url(#clip-path-13)">
    <path id="t-path" class="animate-t" d="M72.496 33.362l29-3.069s-13.454.082-13.537 3.153-.747 39.422-.747 39.422" fill="none" stroke="#fff" stroke-miterlimit="10" stroke-width="5"/>
  </g>
  <g clip-path="url(#clip-path-14)">
    <path id="s-path" class="animate-s" d="M61.239 43.077s-.041-11.655-7.5-12.22-8.674 1.212-8.512 3.715 5.169 10.5 5.169 10.5l8.4 12.6s8.157 12.03 1.777 12.4-9.611-5.369-9.611-5.369-3.958-7.027-4.119-8.8 2.177-5.485 2.177-5.485" fill="none" stroke="#fff" stroke-miterlimit="10" stroke-width="6"/>
  </g>
  <g clip-path="url(#clip-path-15)">
    <path id="o-path" class="animate-o1" d="M24.05 27.133a16.233 16.233 0 0 1 4.679 5.935c1.37 3.424.457 17.445.457 17.445s-1.94 2.413-2.625 9.032-9.358 14.152-9.358 14.152S8.3 78.489 5.22 72.527a27.425 27.425 0 0 1-3.2-14.923c.116-4.525 2.739-13.01 4.223-18.627s15.296-11.844 15.296-11.844l6.962-2.967" fill="none" stroke="#fff" stroke-miterlimit="10" stroke-width="4"/>
  </g>
</svg>

