<svg xmlns="http://www.w3.org/2000/svg" viewBox="0 0 608.97 61.05"><defs><style>.cls-1{fill:#fff;}</style></defs><title>Asset 3</title><g id="Layer_2" data-name="Layer 2"><g id="Layer_1-2" data-name="Layer 1"><path class="cls-1" d="M575.48,31.53c-2.77,8.29,1.67,16.48-2.31,23.94-4.58-9.71-4.53-19.79-4.28-29.88l6.43-.86c1.47,2.09,2.45,4.49,4.23,5.83,7.1,5.31,14.45,10.3,21.71,15.4l2.11-1.09c-.55-6.45-1-12.91-1.69-19.34-.45-4.11-1.62-8.17-1.79-12.28-.06-1.4,2-2.89,3-4.33,1.32,1.21,3.64,2.31,3.79,3.66,1,9.06,1.64,18.17,2.24,27.28a15,15,0,0,1-.72,4.9c-1.71,6.12-4.95,7.71-10.24,4.17-6.46-4.32-12.43-9.39-18.6-14.15C578.13,33.79,576.93,32.73,575.48,31.53Z"/><path class="cls-1" d="M377.24,29.74c0,7.4.14,13.37-.1,19.33-.06,1.37-1.4,2.69-2.15,4-1.07-1.24-2.93-2.38-3.08-3.73-.83-7.09-1.51-14.22-1.67-21.35-.1-4.41,3.69-6.13,7.25-3.43a29,29,0,0,1,5.19,6c3.74,5,7.37,10.11,11,15.17l1.77-.5c0-7.66,0-15.32,0-23,0-2.15-.81-4.38-.45-6.43.25-1.43,1.86-2.63,2.87-3.93,1.23,1.1,3.57,2.23,3.53,3.29-.36,10.59-.64,21.23-2,31.73-.63,5-4.87,5.77-8.3,1.71-4-4.68-7.33-9.87-11-14.84Z"/><path class="cls-1" d="M301.72,45a94.67,94.67,0,0,1-5.1,8.29c-2.4,3.15-5.5,4-9.13,1.71-7.82-4.87-13-23.33-8.66-31.45a7.26,7.26,0,0,1,2.42-2.5c-3.59,12,1.59,20.7,8.72,28.72l2.09,0c1.64-4.74,3.45-9.43,4.85-14.24.88-3,.87-6.27,1.77-9.27.53-1.76,2.05-3.23,3.13-4.82,1.32,1.31,3.32,2.39,3.83,4,2.12,6.62,4,13.34,5.44,20.13.29,1.37-1.24,4.06-2.55,4.57s-3.54-.71-5-1.7C302.59,47.86,302.32,46.27,301.72,45Z"/><path class="cls-1" d="M237.34,17.38V30.66c4.62-4.33,8.47-8,12.33-11.55s7.76-7.17,11.64-10.75l1.2,1.3L243,31.45c5.67,6,12.31,11.34,21.33,13,2.26.42,5.55.14,4.61,3.41-.45,1.56-4.1,3.59-5.71,3.16a41.88,41.88,0,0,1-12.51-5.48c-4.62-3.09-8.59-7.13-12.65-10.59.46,2.72,1.32,6.45,1.65,10.21.31,3.57,4.33,9.16-1.12,10.25-5.9,1.18-4.45-5.56-4.52-8.88-.18-8.72.51-17.46,1-26.19.06-1.06.83-2.08,1.27-3.13Z"/><path class="cls-1" d="M480.64,16.43,484,39.64l1.88-.12c.61-3.35,1.11-6.73,1.87-10.05,1.31-5.7,4.65-7,9.31-3.41,2.76,2.11,5.12,4.74,7.78,7,1.59,1.34,3.41,2.41,5.13,3.6l1.63-.51c0-4.67.19-9.35-.05-14-.24-4.47-1-8.9-1.32-13.37-.06-1,1.06-2.08,1.63-3.12.71.89,1.91,1.71,2.05,2.68,1,6.41,1.9,12.83,2.43,19.29.38,4.65.52,10.08-4.06,12.54-4.77,2.56-8.26-1.91-11.72-4.6-2.3-1.79-4.38-3.87-7.13-6.32-.85,4.86-1.34,8.76-2.27,12.55a13.22,13.22,0,0,1-2.79,5.75c-2,2.12-5,3.2-6.31-.55-3.46-9.83-5-19.91-2-30.23C480.07,16.56,480.54,16.48,480.64,16.43Z"/><path class="cls-1" d="M143.29,32.2l-1.81,11.26-1.71,0c-3.17-4.11-1.08-9.36-2.28-13.86-1.64-6.12,6-6.53,5.75-11.6.71.52,1.15.67,1.16.87.3,3.32-.68,7.66,1,9.78a104.43,104.43,0,0,0,15.34,14.6c2.32,1.88,5,.43,5.39-2.78q1-9.13,1.49-18.32c.24-5-.22-10,.2-14.92.13-1.55,2.1-3,3.23-4.42,1,1.39,3,2.83,2.95,4.18-.52,10.9-.42,22-2.51,32.62-1.92,9.8-8.27,11.1-16.15,4.82-4.44-3.53-8.92-7-13.39-10.51Z"/><path class="cls-1" d="M465.83,30.89l-7.3,2.35c1.71,3.79,3.43,7.33,4.89,11a28.7,28.7,0,0,1,2.23,7.57c.14,1.35-1.28,2.85-2,4.28-1-1.06-2.46-1.94-3-3.21-2.59-6.05-4.94-12.21-7.41-18.41-5,.75-8.42,2-9.15,7.59-.39,3-2.7,5.72-5,8.08,1-4.81,2.28-9.58,2.85-14.43.66-5.59.55-11.26,1-16.87.13-1.46,1-3.83,2-4a5.72,5.72,0,0,1,4.71,1.56,27.35,27.35,0,0,1,4.84,8c1.39,3.86,3.08,6,7.53,4.48,1-.36,2.37.18,3.57.31Z"/><path class="cls-1" d="M325.5,43.88c.28,3.15.67,6,.72,9,0,.86-.92,1.74-1.42,2.61-.57-.67-1.6-1.31-1.66-2-.78-9.08-1.68-18.17-2-27.28-.13-4,2.56-7.56,6.45-7.7,2.77-.1,6.4,1.89,8.33,4.09C341.57,29,341,35,334.45,43.42c4.78.75,9,1.48,13.31,2.06,2,.27,4.09-.12,5.95.44s3.36,1.91,5,2.91c-1.79.88-3.53,2.42-5.37,2.53C344.66,51.92,336.71,49.65,325.5,43.88Zm-1-5c4.48.68,8.39,2.21,11.13-2,2.9-4.45,0-13.52-5-15.48-2.59-1-6.07.72-6.13,3.24C324.42,29.31,324.5,34,324.5,38.91Z"/><path class="cls-1" d="M61.61,26.33c-.11-5.3-1.62-9.47-7.4-10-1.63-.16-4.06.12-4.84,1.16S49,21,49.82,22.32c3.09,5.11,6.75,9.88,9.79,15a61.36,61.36,0,0,1,6,12.49c1.54,4.85-2.23,8-7.17,6.69-6.5-1.79-13.11-11.74-11.92-18.35.23-1.27,1.71-2.31,2.61-3.45.52,1.21,1.51,2.42,1.49,3.62-.08,5.3,2.51,9.23,6.2,12.52,1.31,1.17,3.27,1.59,4.94,2.35l1.54-1.28c-1.93-4-3.55-8.27-5.88-12.07-3.29-5.37-7.15-10.39-10.68-15.62-2-3-2.88-6.16-.14-9.14s6.17-2.71,9.64-1.23C61.9,16.3,63.79,20.05,61.61,26.33Z"/><path class="cls-1" d="M30.39,27.67a45,45,0,0,1-5.63,23.52c-.4.73-.77,1.48-1.22,2.17C20,58.65,14.17,61.89,10,60.85c-5.54-1.38-10.1-7.12-10-14C.13,37.73.49,28.1,6.14,20.61c3.43-4.55,9.15-7.73,14.41-10.44,3.54-1.83,8,1.94,9,7.08C30.28,20.64,30.15,24.19,30.39,27.67Zm-1.54,1.38-.94-.44c-.29-3.79-.13-7.68-1-11.34-1.19-5.17-4.94-6.07-9.1-2.7-.71.57-1.78.69-2.53,1.23-2.82,2.05-7.2,3.69-8,6.4A127.69,127.69,0,0,0,2.52,46.33c-.59,5.51,3.41,10.57,7.65,11.56,5.41,1.25,8-2.84,11-6.11a6,6,0,0,0,1.2-2.16C24.56,42.77,26.69,35.91,28.84,29.05Z"/><path class="cls-1" d="M529.95,45c-.19-1.93-.78-3.93-.5-5.79,1.23-8,2.56-16.06,4.21-24,.39-1.87,1.94-4.56,3.37-4.85s3.44,1.87,5.18,3a1.54,1.54,0,0,1,.33.37c3.38,4.29,3.9,11.72,12.9,9.88l-.75,1.71-5.06,1.64c2.45,6.45,5,12.85,7.22,19.37.5,1.48-.35,3.42-.57,5.15-1.19-1.26-2.88-2.32-3.47-3.82-2.37-6-4.22-12.23-6.67-18.2A5.31,5.31,0,0,0,542,26.84c-6.42.4-9.82,4-10.29,10.52-.18,2.54,0,5.1,0,7.65Zm14.33-22.22c-2.27-3.76-2.52-8.65-8-11.29L533.12,27Z"/><path class="cls-1" d="M89.46,18.38H76.65l-.17-1.46c7.83-1.26,15.65-2.56,23.49-3.68.6-.09,1.38,1.07,2.08,1.64-.58.68-1.15,1.36-1.75,2-.09.1-.32.06-.48.11-8.47,2.64-8.54,2.64-8.44,11.48.08,7.31.46,14.62.45,21.93,0,1.32-1.22,2.63-1.88,3.94-.63-1.33-1.83-2.67-1.79-4C88.45,39.8,89,29.22,89.46,18.38Z"/><path class="cls-1" d="M117.71,23.25c.35,3.33.71,6.65,1,10,.61,6.43,1.32,12.85,1.68,19.29.07,1.25-1.31,2.58-2,3.87a25.86,25.86,0,0,1-3.56-2.54,3.36,3.36,0,0,1-.62-2.35c.51-9.4,1.1-18.79,1.66-28.19Z"/><path class="cls-1" d="M418.52,20.28c.53,3.8,1,7.61,1.59,11.41.64,4.44,1.49,8.86,1.88,13.31.12,1.41-.95,2.93-1.47,4.4-1-1.08-2.82-2.14-2.86-3.24-.24-8.58-.13-17.17-.13-25.75Z"/><path class="cls-1" d="M126.05,2.67c-1.87,1.34-3,2.74-4,2.67s-2-1.55-3-2.41c1-1,1.83-2.58,3-2.91C122.91-.2,124.18,1.34,126.05,2.67Z"/></g></g></svg>